<svg width="26" height="38" viewBox="0 0 26 38" fill="none" xmlns="http://www.w3.org/2000/svg">
<path d="M10.1772 16.1771C7.83948 16.1771 5.46864 17.0653 3.59122 18.5359C1.7138 20.0065 0.272156 22.1444 0.272156 24.6522V28.9002C0.272156 33.5756 4.08232 37.3753 8.7577 37.3753H17.2432C21.9186 37.3753 25.7288 33.5756 25.7288 28.9002V24.6522C25.7288 22.1444 24.2871 20.0065 22.4097 18.5359C20.5323 17.0653 18.1614 16.1771 15.8238 16.1771C15.4526 16.1774 15.0965 16.3236 14.8322 16.5841L13.0057 18.4211L11.1687 16.5841C10.9044 16.3236 10.5483 16.1774 10.1772 16.1771ZM9.7388 19.1517L12.0037 21.4166C12.2686 21.6799 12.627 21.8277 13.0005 21.8277C13.374 21.8277 13.7323 21.6799 13.9972 21.4166L16.2621 19.1517C17.7412 19.2614 19.4065 19.7824 20.6667 20.7695C22.0519 21.8545 22.9003 23.2435 22.9003 24.6522V28.9002C22.9003 32.0579 20.4009 34.5468 17.2432 34.5468H8.7577C5.60002 34.5468 3.10067 32.0579 3.10067 28.9002V24.6522C3.10067 23.2435 3.94908 21.8545 5.33426 20.7695C6.59442 19.7824 8.25972 19.2614 9.7388 19.1517ZM12.9952 0.625488C9.49803 0.625488 6.63892 3.4846 6.63892 6.98181C6.63892 10.479 9.49803 13.3486 12.9952 13.3486C16.4925 13.3486 19.362 10.479 19.362 6.98181C19.362 3.4846 16.4925 0.625488 12.9952 0.625488ZM12.9952 3.44356C14.9642 3.44356 16.5335 5.01287 16.5335 6.98181C16.5335 8.95076 14.9642 10.5201 12.9952 10.5201C11.0263 10.5201 9.46743 8.95076 9.46743 6.98181C9.46743 5.01287 11.0263 3.44356 12.9952 3.44356Z" fill="#303030"/>
<path d="M20.6354 17.5652C20.3822 17.5605 20.1324 17.6239 19.912 17.7487C19.6917 17.8736 19.509 18.0553 19.3829 18.2749L16.951 22.3664L13.9972 19.4126C13.8672 19.2747 13.7108 19.1644 13.5373 19.0882C13.3639 19.012 13.1768 18.9714 12.9873 18.9688C12.7979 18.9663 12.6098 19.0019 12.4344 19.0735C12.2589 19.1451 12.0996 19.2512 11.966 19.3855C11.8324 19.5198 11.7271 19.6797 11.6564 19.8555C11.5858 20.0313 11.5512 20.2196 11.5547 20.409C11.5582 20.5985 11.5998 20.7853 11.6769 20.9584C11.754 21.1315 11.8652 21.2873 12.0037 21.4166L16.2412 25.6541C16.3938 25.8057 16.579 25.9205 16.7827 25.9897C16.9863 26.0589 17.2031 26.0808 17.4164 26.0536C17.6298 26.0264 17.8341 25.9509 18.0139 25.8329C18.1937 25.7148 18.3442 25.5573 18.454 25.3723L21.8148 19.7257C21.9469 19.5131 22.0203 19.2693 22.0274 19.0191C22.0345 18.7688 21.975 18.5212 21.8551 18.3015C21.7351 18.0818 21.559 17.8979 21.3447 17.7685C21.1304 17.6391 20.8856 17.569 20.6354 17.5652Z" fill="#303030"/>
<path d="M5.3238 17.5756C5.07867 17.5875 4.84087 17.6631 4.63377 17.7947C4.42668 17.9264 4.25742 18.1097 4.14264 18.3267C4.02786 18.5436 3.97151 18.7866 3.97914 19.0319C3.98676 19.2772 4.0581 19.5163 4.18613 19.7257L7.54695 25.3723C7.65669 25.5573 7.80718 25.7148 7.98697 25.8329C8.16676 25.9509 8.37112 26.0264 8.58448 26.0536C8.79785 26.0808 9.0146 26.0589 9.21825 25.9897C9.42189 25.9205 9.60706 25.8057 9.75966 25.6541L13.9972 21.4165C14.1357 21.2873 14.2469 21.1314 14.324 20.9584C14.4011 20.7853 14.4427 20.5985 14.4462 20.409C14.4497 20.2195 14.4151 20.0313 14.3445 19.8555C14.2738 19.6797 14.1685 19.5198 14.0349 19.3855C13.9013 19.2512 13.742 19.145 13.5665 19.0735C13.3911 19.0019 13.203 18.9663 13.0136 18.9688C12.8241 18.9714 12.6371 19.012 12.4636 19.0882C12.2901 19.1644 12.1337 19.2747 12.0037 19.4126L9.04992 22.3663L6.61803 18.2749C6.48722 18.0508 6.29729 17.8671 6.06901 17.7437C5.84073 17.6204 5.58292 17.5622 5.3238 17.5756ZM17.2432 27.4806C16.8681 27.4806 16.5084 27.6296 16.2432 27.8949C15.978 28.1601 15.829 28.5198 15.829 28.8949C15.829 29.27 15.978 29.6297 16.2432 29.8949C16.5084 30.1601 16.8681 30.3091 17.2432 30.3091H18.6523C19.0273 30.3091 19.3871 30.1601 19.6523 29.8949C19.9175 29.6297 20.0665 29.27 20.0665 28.8949C20.0665 28.5198 19.9175 28.1601 19.6523 27.8949C19.3871 27.6296 19.0273 27.4806 18.6523 27.4806H17.2432Z" fill="#303030"/>
</svg>
