<svg width="38" height="34" viewBox="0 0 38 34" fill="none" xmlns="http://www.w3.org/2000/svg">
<path d="M9.10128 0.0341797C4.42724 0.0341797 0.628601 3.84325 0.628601 8.51729V25.4835C0.628601 30.1575 4.42724 33.9666 9.10128 33.9666H28.8952C33.5692 33.9666 37.3679 30.1575 37.3679 25.4835V8.51729C37.3679 3.84325 33.5692 0.0341797 28.8952 0.0341797H9.10128ZM9.10128 2.86188H28.8952C32.052 2.86188 34.5506 5.36051 34.5506 8.51729V25.4835C34.5506 28.6403 32.052 31.1389 28.8952 31.1389H9.10128C5.9445 31.1389 3.44587 28.6403 3.44587 25.4835V8.51729C3.44587 5.36051 5.9445 2.86188 9.10128 2.86188Z" fill="#303030"/>
<path d="M2.03726 8.51728C1.66229 8.51728 1.30267 8.66624 1.03752 8.93139C0.772372 9.19653 0.623413 9.55615 0.623413 9.93113C0.623413 10.3061 0.772372 10.6657 1.03752 10.9309C1.30267 11.196 1.66229 11.345 2.03726 11.345H35.9593C36.3342 11.345 36.6939 11.196 36.959 10.9309C37.2242 10.6657 37.3731 10.3061 37.3731 9.93113C37.3731 9.55615 37.2242 9.19653 36.959 8.93139C36.6939 8.66624 36.3342 8.51728 35.9593 8.51728H2.03726ZM28.7491 4.28094C28.3742 4.30034 28.0223 4.46789 27.7709 4.74673C27.5194 5.02557 27.3891 5.39287 27.4084 5.76783C27.4278 6.14279 27.5953 6.49469 27.8742 6.74614C28.153 6.99759 28.5203 7.12799 28.8952 7.10864H30.3039C30.4895 7.10864 30.6734 7.07207 30.8449 7.00102C31.0165 6.92997 31.1723 6.82583 31.3036 6.69454C31.4349 6.56325 31.539 6.40739 31.6101 6.23585C31.6811 6.06431 31.7177 5.88046 31.7177 5.69479C31.7177 5.50912 31.6811 5.32527 31.6101 5.15373C31.539 4.9822 31.4349 4.82634 31.3036 4.69505C31.1723 4.56376 31.0165 4.45962 30.8449 4.38856C30.6734 4.31751 30.4895 4.28094 30.3039 4.28094H28.8952C28.8466 4.27842 28.7978 4.27842 28.7491 4.28094H28.7491ZM21.6851 4.28094C21.3101 4.29893 20.9577 4.46514 20.7052 4.74301C20.4528 5.02088 20.3211 5.38764 20.3391 5.76262C20.3571 6.13759 20.5233 6.49007 20.8011 6.7425C21.079 6.99492 21.4458 7.12663 21.8208 7.10864H23.2398C23.4255 7.10864 23.6093 7.07207 23.7809 7.00102C23.9524 6.92997 24.1083 6.82583 24.2396 6.69454C24.3709 6.56325 24.475 6.40739 24.546 6.23585C24.6171 6.06431 24.6537 5.88046 24.6537 5.69479C24.6537 5.50912 24.6171 5.32527 24.546 5.15373C24.475 4.9822 24.3709 4.82634 24.2396 4.69505C24.1083 4.56376 23.9524 4.45962 23.7809 4.38856C23.6093 4.31751 23.4255 4.28094 23.2398 4.28094H21.8208C21.7756 4.27877 21.7303 4.27877 21.6851 4.28094Z" fill="#303030"/>
<path d="M14.7359 8.49634C14.5502 8.49971 14.367 8.53963 14.1967 8.61383C14.0265 8.68803 13.8725 8.79505 13.7436 8.92877C13.6147 9.06249 13.5135 9.2203 13.4456 9.39317C13.3777 9.56604 13.3446 9.7506 13.3481 9.93628V32.5475C13.3481 32.7331 13.3847 32.917 13.4557 33.0885C13.5268 33.2601 13.6309 33.4159 13.7622 33.5472C13.8935 33.6785 14.0493 33.7826 14.2209 33.8537C14.3924 33.9247 14.5763 33.9613 14.7619 33.9613C14.9476 33.9613 15.1315 33.9247 15.303 33.8537C15.4745 33.7826 15.6304 33.6785 15.7617 33.5472C15.893 33.4159 15.9971 33.2601 16.0682 33.0885C16.1392 32.917 16.1758 32.7331 16.1758 32.5475V9.93628C16.1794 9.7462 16.1446 9.55736 16.0735 9.38105C16.0024 9.20473 15.8964 9.04457 15.762 8.91014C15.6276 8.77571 15.4674 8.66978 15.2911 8.59868C15.1148 8.52758 14.9259 8.49277 14.7359 8.49634Z" fill="#303030"/>
<path d="M14.7567 22.6558H35.9593C37.8444 22.6558 37.8444 19.8281 35.9593 19.8281H14.7567V22.6558Z" fill="#303030"/>
<path d="M25.3371 8.49641C25.1514 8.49978 24.9682 8.5397 24.798 8.6139C24.6277 8.68809 24.4737 8.79511 24.3449 8.92883C24.216 9.06256 24.1147 9.22036 24.0468 9.39324C23.979 9.56611 23.9458 9.75066 23.9493 9.93635V21.2367C23.9493 21.6117 24.0983 21.9713 24.3634 22.2365C24.6286 22.5016 24.9882 22.6506 25.3632 22.6506C25.7382 22.6506 26.0978 22.5016 26.3629 22.2365C26.6281 21.9713 26.777 21.6117 26.777 21.2367V9.93635C26.7806 9.74627 26.7458 9.55743 26.6747 9.38111C26.6036 9.2048 26.4977 9.04464 26.3632 8.91021C26.2288 8.77578 26.0686 8.66985 25.8923 8.59875C25.716 8.52765 25.5272 8.49284 25.3371 8.49641ZM7.69265 14.1727C7.31767 14.1727 6.95805 14.3216 6.6929 14.5868C6.42775 14.8519 6.2788 15.2116 6.2788 15.5865C6.2788 15.9615 6.42775 16.3211 6.6929 16.5863C6.95805 16.8514 7.31767 17.0004 7.69265 17.0004H9.10128C9.47626 17.0004 9.83588 16.8514 10.101 16.5863C10.3662 16.3211 10.5151 15.9615 10.5151 15.5865C10.5151 15.2116 10.3662 14.8519 10.101 14.5868C9.83588 14.3216 9.47626 14.1727 9.10128 14.1727H7.69265ZM7.54657 19.8281C7.17161 19.8475 6.81972 20.015 6.56829 20.2939C6.31686 20.5727 6.1865 20.94 6.20587 21.315C6.22524 21.6899 6.39276 22.0418 6.67158 22.2933C6.9504 22.5447 7.31769 22.6751 7.69265 22.6558H9.10128C9.47626 22.6558 9.83588 22.5068 10.101 22.2417C10.3662 21.9765 10.5151 21.6169 10.5151 21.2419C10.5151 20.867 10.3662 20.5073 10.101 20.2422C9.83588 19.977 9.47626 19.8281 9.10128 19.8281H7.69265C7.64399 19.8256 7.59523 19.8256 7.54657 19.8281H7.54657ZM7.54657 25.4835C7.17161 25.5029 6.81972 25.6704 6.56829 25.9493C6.31686 26.2281 6.1865 26.5954 6.20587 26.9704C6.22524 27.3453 6.39276 27.6972 6.67158 27.9487C6.9504 28.2001 7.31769 28.3305 7.69265 28.3112H9.10128C9.47626 28.3112 9.83588 28.1622 10.101 27.8971C10.3662 27.6319 10.5151 27.2723 10.5151 26.8973C10.5151 26.5224 10.3662 26.1628 10.101 25.8976C9.83588 25.6325 9.47626 25.4835 9.10128 25.4835H7.69265C7.64399 25.481 7.59523 25.481 7.54657 25.4835H7.54657ZM7.54657 4.28094C7.17161 4.30034 6.81972 4.46789 6.56829 4.74673C6.31686 5.02557 6.1865 5.39287 6.20587 5.76783C6.22524 6.14279 6.39276 6.49469 6.67158 6.74614C6.9504 6.99759 7.31769 7.12799 7.69265 7.10864H9.10128C9.28695 7.10864 9.4708 7.07207 9.64234 7.00102C9.81388 6.92997 9.96974 6.82582 10.101 6.69454C10.2323 6.56325 10.3365 6.40739 10.4075 6.23585C10.4786 6.06431 10.5151 5.88046 10.5151 5.69479C10.5151 5.50912 10.4786 5.32527 10.4075 5.15373C10.3365 4.9822 10.2323 4.82634 10.101 4.69505C9.96974 4.56376 9.81388 4.45962 9.64234 4.38856C9.4708 4.31751 9.28695 4.28094 9.10128 4.28094H7.69265C7.64399 4.27842 7.59523 4.27842 7.54657 4.28094H7.54657Z" fill="#303030"/>
</svg>
